<svg xmlns="http://www.w3.org/2000/svg" width="256" height="256"><path fill="#1976D2" fill-opacity=".016" fill-rule="evenodd" d="M0 128.004v128.004l128.25-.254 128.25-.254.254-127.75L257.008 0H0v128.004m.485.496c0 70.4.119 99.053.265 63.672.146-35.38.146-92.98 0-128C.604 29.153.485 58.1.485 128.5"/><path fill="#1976D2" fill-opacity=".107" fill-rule="evenodd" d="M113.5.618C61.045 8.657 22.173 40.585 6.467 88.53-15.142 154.496 20.187 225.681 86 248.783c14.981 5.259 23.761 6.649 42 6.649 12.238 0 18.696-.474 25-1.833 49.03-10.57 86.203-45.927 98.97-94.137 1.16-4.379 2.382-10.789 2.717-14.244.334-3.455.992-6.519 1.461-6.809.468-.29.852-5.477.852-11.527 0-6.05-.355-10.781-.789-10.513-.433.268-1.331-3.497-1.994-8.367-1.383-10.151-6.552-26.744-11.246-36.098-17.9-35.67-49.073-60.125-87.971-69.014C146.683.989 120.448-.447 113.5.618M.378 128c0 6.325.163 8.912.361 5.75.198-3.163.198-8.338 0-11.5-.198-3.163-.361-.575-.361 5.75"/><path fill="#1976D2" fill-opacity=".094" fill-rule="evenodd" d="M167 27.085c-10.175.426-25.25 1.501-33.5 2.39-15.123 1.629-74.867 3.765-78.528 2.808-1.636-.428-1.972-.01-1.972 2.451C53 38.803 54.929 44 56.439 44c3.007 0 4.456 10.977 5.018 38 1.061 50.984 2.66 111.632 3.348 127l.695 15.5 4.5-.23c2.475-.126 12.537-.689 22.361-1.25 9.823-.561 38.748-1.02 64.276-1.02h46.416l-.58-19.25c-1.509-50.136-2.571-67.079-5.905-94.25-1.89-15.4-3.927-35.65-4.527-45-1.781-27.761-1.847-25.332.705-25.973 1.921-.482 2.254-1.23 2.254-5.071 0-3.916-.335-4.633-2.565-5.481-1.411-.536-3.548-.905-4.75-.82-1.202.086-10.51.504-20.685.93m-5.5 1.954c-9.35.417-20.825 1.262-25.5 1.876-11.853 1.556-38.865 2.968-62.25 3.252-10.863.132-19.75.531-19.75.887s.455 1.952 1.011 3.547l1.011 2.899 34.739-.028c29.133-.023 40.145-.477 68.239-2.811 18.425-1.53 33.925-3.203 34.445-3.717.593-.586.585-1.959-.021-3.689-.923-2.635-1.269-2.76-7.945-2.865-3.838-.061-14.629.231-23.979.649m-10 14.026c-26.291 2.166-40.498 2.816-62.659 2.868L60.181 46l1.398 5.25c.96 3.606 1.402 11.198 1.414 24.25.009 10.45.3 23.95.648 30l.632 11 10.613-.724c5.838-.398 32.664-1.424 59.614-2.279 26.95-.856 51.62-1.812 54.822-2.123l5.821-.567-.562-3.654c-1.66-10.785-5.566-55.55-5.577-63.903-.003-2.478-.42-3.219-1.754-3.118-.963.073-17.05 1.393-35.75 2.933M143 48c0 .55 1.152 1 2.559 1 1.451 0 2.292-.433 1.941-1-.34-.55-1.491-1-2.559-1S143 47.45 143 48m-73.5 1c-.36.582.637 1 2.382 1 1.65 0 3.278-.45 3.618-1 .36-.582-.637-1-2.382-1-1.65 0-3.278.45-3.618 1m25.25.689c-.963.252-1.75.923-1.75 1.491 0 .569.712.761 1.582.427.87-.334 1.995-.607 2.5-.607.505 0 .918-.45.918-1 0-1.04-.337-1.072-3.25-.311m70 1c-.963.252-1.75.833-1.75 1.291 0 .458.9.597 2 .31 1.1-.288 2-.921 2-1.407 0-.485-.113-.831-.25-.767-.137.064-1.037.322-2 .573M112 52c0 .55.9 1 2 1s2-.45 2-1-.9-1-2-1-2 .45-2 1m64 0c0 .55.648 1 1.441 1s1.719-.45 2.059-1c.34-.55-.309-1-1.441-1-1.132 0-2.059.45-2.059 1m-52 2c0 .55 1.098 1 2.441 1 1.343 0 2.719-.45 3.059-1 .361-.583-.656-1-2.441-1-1.682 0-3.059.45-3.059 1m-32.5 3.146c-6.6.471-12.845.658-13.878.415-1.693-.397-1.816.01-1.25 4.139.346 2.518.628 6.939.628 9.823 0 4.403.321 5.328 2 5.767 1.825.477 2 1.364 2 10.116C81 95.267 80.729 97 79.5 97c-1.75 0-2.032 4.471-.53 8.42.875 2.302 1.385 2.505 5.25 2.089 2.354-.253 10.243-.978 17.53-1.61 14.491-1.256 13.99-.948 12.625-7.774-.413-2.067-1.216-3.125-2.369-3.125-1.823 0-2.973-4.128-2.995-10.75L109 81h8.083c4.446 0 7.934-.379 7.75-.843-.183-.464-3.708-6.062-7.833-12.441-6.894-10.661-7.742-11.591-10.5-11.512-1.65.047-8.4.471-15 .942m58 .009c-6.6.476-13.058.69-14.351.475-2.134-.355-2.296-.113-1.75 2.614.33 1.653.601 6.047.601 9.764 0 5.918.249 6.824 2 7.282 1.752.458 2.002 1.37 2.014 7.366.007 3.764.292 7.883.632 9.153.481 1.799.147 2.432-1.514 2.867-2.436.637-2.723 3.047-.947 7.959 1.117 3.09 1.416 3.252 5.25 2.845 2.236-.238 10.028-.949 17.315-1.581l13.25-1.148-.014-2.626c-.023-4.447-1.137-7.125-2.963-7.125-1.358 0-1.884-1.165-2.375-5.25-1.124-9.355-1.638-8.75 7.435-8.75 4.575 0 7.939-.405 7.75-.933-.183-.513-3.708-6.106-7.833-12.428-6.342-9.721-7.886-11.484-10-11.422-1.375.04-7.9.462-14.5.938m-61.25 1.591L78 59.07V75h5.5c4.222 0 5.5-.348 5.5-1.5 0-.943-.951-1.5-2.559-1.5-1.451 0-2.292.433-1.941 1 .34.55.141 1-.441 1S83 73.55 83 73s-.787-1.036-1.75-1.079c-1.045-.047-1.247-.282-.5-.583.786-.318 1.25-2.535 1.25-5.98 0-3.396.38-5.241 1-4.858.55.34 1 2.779 1 5.42 0 4.442.169 4.77 2.252 4.372 2-.382 2.212-.925 1.899-4.861-.22-2.771.06-4.431.748-4.431.638 0 1.101 1.892 1.101 4.5 0 3.495.365 4.5 1.632 4.5 1.326 0 1.531-.748 1.095-4-.295-2.2-.18-4.22.256-4.49.436-.269 1.096 1.531 1.466 4 .439 2.928 1.174 4.49 2.112 4.49 1.054 0 1.47-1.403 1.555-5.25.118-5.337.275-5.164 1.363 1.5.444 2.725 1.106 3.75 2.42 3.75 1.566 0 1.743-.667 1.327-5-.32-3.327-.103-5 .647-5 .686 0 1.127 1.957 1.127 5 0 3.778.367 5 1.5 5 .825 0 1.5.45 1.5 1s-.45 1-1 1-1 .675-1 1.5c0 .833.889 1.5 2 1.5 2.232 0 2.492-2.259 1.352-11.75l-.631-5.25-5.11.211c-2.811.116-9.723.357-15.361.535m57.375.001-10.875.323.614 3.715c.338 2.043.619 5.627.625 7.965L136 75h5c3.778 0 5-.367 5-1.5 0-1.81-3.594-2.013-4.417-.25-.466 1-.7 1-1.166 0-.321-.687-1.334-1.257-2.25-1.265-1.404-.013-1.437-.161-.212-.936 1.004-.635 1.368-2.336 1.175-5.485-.17-2.764.143-4.564.794-4.564.609 0 1.076 1.956 1.076 4.5 0 4.162.192 4.5 2.561 4.5 2.469 0 2.537-.162 1.887-4.5-.457-3.043-.315-4.5.438-4.5.654 0 1.114 1.861 1.114 4.5 0 3.626.341 4.5 1.757 4.5 1.465 0 1.716-.79 1.507-4.75-.186-3.542-.015-4.241.673-2.75.507 1.1.954 3.237.993 4.75.049 1.925.595 2.75 1.82 2.751 1.489 0 1.697-.782 1.397-5.25-.195-2.893.03-4.874.5-4.411.469.463.899 1.588.955 2.5.056.913.169 2.897.25 4.41.111 2.069.662 2.75 2.224 2.75 1.832 0 2.043-.524 1.8-4.467-.151-2.458.04-4.783.425-5.167.384-.385.699 1.144.699 3.396 0 2.559.653 4.748 1.741 5.836 1.252 1.252 1.392 1.858.5 2.155-2.34.78-1.317 3.247 1.347 3.247 2.423 0 2.552-.238 2.027-3.75a711.75 711.75 0 0 1-1.202-8.5l-.64-4.75-4.637.212c-2.55.117-9.53.358-15.511.535M178 62c0 .55 1.098 1 2.441 1 1.343 0 2.719-.45 3.059-1 .361-.583-.656-1-2.441-1-1.682 0-3.059.45-3.059 1M69.269 63.693c.973.254 2.323.237 3-.037.677-.274-.119-.481-1.769-.461-1.65.02-2.204.244-1.231.498M121 64c0 .55.9 1 2 1s2-.45 2-1-.9-1-2-1-2 .45-2 1m-30.362 9.5c.317.825 1.203 1.5 1.969 1.5S94 74.325 94 73.5s-.885-1.5-1.969-1.5c-1.339 0-1.784.48-1.393 1.5m4.362 0c0 .833.889 1.5 2 1.5s2-.667 2-1.5-.889-1.5-2-1.5-2 .667-2 1.5m5.638 0c.317.825 1.414 1.5 2.438 1.5 1.244 0 1.67-.498 1.286-1.5-.317-.825-1.414-1.5-2.438-1.5-1.244 0-1.67.498-1.286 1.5m47.362 0c0 .825.675 1.5 1.5 1.5s1.5-.675 1.5-1.5-.675-1.5-1.5-1.5-1.5.675-1.5 1.5m5 0c0 .825.675 1.5 1.5 1.5s1.5-.675 1.5-1.5-.675-1.5-1.5-1.5-1.5.675-1.5 1.5m5-.073c0 .927.855 1.573 2.083 1.573 2.437 0 2.093-2.337-.416-2.823-.987-.192-1.667.318-1.667 1.25M69 82c0 .55 1.152 1 2.559 1 1.451 0 2.292-.433 1.941-1-.34-.55-1.491-1-2.559-1S69 81.45 69 82m16.011 2.75c.006 2.063.284 5.399.617 7.415l.606 3.665 10.55-.415c5.802-.228 10.754-.62 11.004-.87s.139-3.4-.246-7L106.841 81H85l.011 3.75m57.815 3.664.326 7.419 10.674-.413 10.674-.412.335-2.695c.184-1.483.044-4.634-.311-7.004L163.877 81l-10.688-.002-10.689-.003.326 7.419m-12.557-5.721c.973.254 2.323.237 3-.037.677-.274-.119-.481-1.769-.461-1.65.02-2.204.244-1.231.498M115.5 85c.34.55 1.24 1 2 1s1.66-.45 2-1c.352-.569-.509-1-2-1s-2.352.431-2 1m62.5 2c0 1.264 2.043 1.264 4 0 1.169-.755.893-.973-1.25-.985-1.512-.008-2.75.435-2.75.985M66 90c0 .55 1.125 1 2.5 1s2.5-.45 2.5-1-1.125-1-2.5-1-2.5.45-2.5 1m57.5 4c-.351.567.49 1 1.941 1 1.407 0 2.559-.45 2.559-1s-.873-1-1.941-1-2.219.45-2.559 1m50.5 1c0 .55.873 1 1.941 1s2.219-.45 2.559-1c.351-.567-.49-1-1.941-1-1.407 0-2.559.45-2.559 1m-88.75 2.737c-4.803.336-5.25.576-5.25 2.815 0 2.953.09 2.959 19.25 1.268 12.135-1.071 13.75-1.425 13.75-3.017 0-1.642-1.007-1.786-11.25-1.618-6.187.102-13.612.35-16.5.552m57 0c-4.803.336-5.25.576-5.25 2.815 0 2.96 1.268 3.039 20.25 1.269 11.216-1.046 12.75-1.408 12.75-3.005 0-1.658-.979-1.8-11.25-1.631-6.187.102-13.613.35-16.5.552m41.5 5.925c.688.278 1.813.278 2.5 0 .688-.277.125-.504-1.25-.504s-1.937.227-1.25.504M68 105c0 1.264 2.043 1.264 4 0 1.169-.755.893-.973-1.25-.985-1.513-.008-2.75.435-2.75.985m53.5 1c-.351.567.49 1 1.941 1 1.407 0 2.559-.45 2.559-1s-.873-1-1.941-1-2.219.45-2.559 1m-21.5 4c0 .55.675 1 1.5 1s1.5-.45 1.5-1-.675-1-1.5-1-1.5.45-1.5 1m72.5 1c2.731 1.174 3.5 1.174 3.5 0 0-.55-1.238-.968-2.75-.93-2.437.063-2.522.168-.75.93m-93.687.683c.721.289 1.584.253 1.916-.079.332-.332-.258-.568-1.312-.525-1.165.048-1.402.285-.604.604m102.687 1.82c-3.85.682-20.275 1.547-36.5 1.922-44.889 1.038-80.034 2.275-80.595 2.837-.278.277-.189 6.879.197 14.67.613 12.4.9 14.089 2.299 13.552 3.52-1.35 32.994-2.59 79.848-3.359 33.672-.552 49.685-1.159 50.44-1.914.807-.807.782-4.425-.092-13.408-.659-6.767-1.43-13.09-1.715-14.053-.605-2.05-3.415-2.1-13.882-.247m-70.425 8.997c.024 2.75.389 7.092.811 9.65l.767 4.65-3.96.633c-2.178.348-4.165.428-4.416.177-.251-.251-.93-3.978-1.508-8.283-.579-4.305-1.494-8.277-2.035-8.827-.938-.955-.625 3.616.942 13.75.577 3.732.563 3.75-2.935 3.75-3.889 0-3.449 1.143-5.282-13.75-.356-2.888-1.103-5.25-1.661-5.25s-.77 1.013-.471 2.25c.299 1.237.85 5.454 1.224 9.369l.682 7.12-3.077.451c-3.416.502-3.406.523-4.73-10.19-.961-7.779-2.606-11.059-2.007-4 .257 3.025.779 7.637 1.16 10.25l.693 4.75h-8.035l-.708-8.5c-.39-4.675-1.043-8.5-1.451-8.5-.662 0-.531 6.585.283 14.25.266 2.499-.006 2.75-2.975 2.75-1.797 0-3.546.45-3.886 1-.372.603.962 1 3.358 1 2.243 0 4.196.545 4.483 1.25.401.99.695.983 1.414-.035 1.33-1.886 8.245-2.847 8.245-1.146 0 1.035.267 1.064 1.2.131 1.449-1.449 6.8-1.607 6.8-.2 0 .55.477 1 1.059 1s.811-.401.508-.892c-.303-.49 1.047-1.078 3-1.306 2.487-.29 3.823.052 4.461 1.142.795 1.357.915 1.332.942-.194.024-1.4.92-1.75 4.48-1.75 3.184 0 4.741.498 5.47 1.75.971 1.667 1.021 1.667 1.05 0 .023-1.323.873-1.75 3.48-1.75 2.231 0 3.811.618 4.47 1.75.971 1.667 1.021 1.667 1.05 0 .024-1.411.929-1.75 4.67-1.75 3.246 0 5.039.526 5.968 1.75 1.265 1.667 1.33 1.667 1.36 0 .043-2.349 8.032-2.598 8.032-.25 0 .825.498 1.5 1.107 1.5s.848-.675.531-1.5c-.468-1.221.443-1.5 4.893-1.5 4.195 0 5.469.35 5.469 1.5 0 .825.45 1.5 1 1.5s1-.675 1-1.5c0-1.083 1.111-1.5 4-1.5 2.889 0 4 .417 4 1.5 0 .825.48 1.5 1.067 1.5.601 0 .799-.847.453-1.937-.525-1.653-.058-1.983 3.183-2.25 2.479-.204 4.22.208 5.015 1.187 1.066 1.312 1.222 1.28 1.25-.25.025-1.37.901-1.75 4.032-1.75 3.677 0 4.007.222 4.081 2.75l.081 2.75 1.169-2.589c.69-1.528 1.784-2.425 2.669-2.188 1.269.341 1.258.2-.068-.91-.863-.722-2.427-5.25-3.476-10.063-1.049-4.812-2.255-8.75-2.681-8.75-1.032 0-.984.503.705 7.5 2.168 8.98 2.103 9.234-2.477 9.671-4.478.427-4.208.984-5.533-11.421-.338-3.162-1.08-5.75-1.65-5.75-.57 0-.797 1.013-.504 2.25.293 1.237.838 5.236 1.212 8.885l.68 6.635-4 .382-4 .381-.604-4.406c-.332-2.423-.604-6.593-.604-9.267 0-2.673-.387-4.86-.861-4.86-.473 0-.639 4.222-.37 9.383l.491 9.382-4.073.389c-4.877.465-5.153-.126-5.173-11.071-.008-4.079-.281-7.15-.607-6.823-.326.326-.573 4.676-.55 9.666L154.9 138h-9.656l-1.252-8.25c-.689-4.537-1.673-8.925-2.187-9.75-.906-1.453-.847-.558.855 13.037l.568 4.538-3.973-.379-3.974-.379-.663-8.632c-.365-4.747-1.143-9.093-1.728-9.658-1.033-.996-.569 8.73.75 15.723.515 2.727.473 2.75-4.93 2.75h-5.448l-.62-3.75c-.341-2.062-.625-6.338-.631-9.5-.006-3.162-.461-5.75-1.011-5.75-1.148 0-1.195 6.107-.106 13.75l.747 5.25h-3.684c-3.626 0-3.695-.075-4.321-4.64-.35-2.551-.643-6.264-.651-8.25-.009-1.985-.452-4.285-.985-5.11-.694-1.074-.957-.081-.925 3.5m76.103 25.24-5.321.369.667 15.196c.695 15.828 1.97 31.543 2.606 32.13.204.187 3.632.662 7.62 1.054l7.25.714-.011-17.352c-.013-20.967-.471-24.427-3.356-25.392l-2.133-.713 2.25-.443c1.721-.338 2.25-1.131 2.25-3.373 0-3.226.843-3.07-11.822-2.19m-19.917 1.006c-11.009.313-11.252.37-11.86 2.794-.342 1.361-.122 6.71.489 11.888.61 5.177 1.115 13.386 1.121 18.242.006 4.857.297 10.56.646 12.675l.635 3.844 8.604-.613c4.732-.338 10.342-.701 12.467-.807l3.863-.193-.575-5.038c-.316-2.771-.832-10.438-1.147-17.038-.871-18.264-1.606-26.522-2.339-26.286-.366.117-5.723.357-11.904.532m-71.511.997c-7.101.313-7.75.517-7.75 2.444 0 1.976.374 2.066 6.25 1.501 3.438-.331 7.713-.902 9.5-1.27 1.916-.394 3.25-.264 3.25.315 0 .541-4.05 1.536-9 2.213l-9 1.23.014 4.162c.028 8.623.075 8.662 10.353 8.662h9.133l-.305-8.75c-.364-10.424-.597-11.31-2.914-11.049-.979.111-5.268.355-9.531.542m13.994 9.605c.523 10.256.507 10.353-1.858 10.986-4.527 1.212-20.571.75-21.712-.624-.589-.71-1.387-5.478-1.773-10.596l-.703-9.307-5.599.626c-3.079.344-7.286.877-9.349 1.184l-3.75.559v23.545l16.75-.438c9.213-.241 17.2-.618 17.75-.837.55-.22-6.763-.297-16.25-.173-9.488.125-17.251-.044-17.25-.375 0-.903 14.828-1.879 29.5-1.941 14.767-.063 40.348-1.472 41.143-2.267.291-.291.207-5.065-.186-10.609L135.742 149h-26.527l.529 10.348m28.398 4.152c-.114 13.596 1.219 32.194 2.392 33.367 1.473 1.474 1.592-2.52.523-17.575-.656-9.236-1.552-19.942-1.991-23.792-.694-6.093-.814-5.056-.924 8m3.325-.75c.389 7.563 1.105 16.9 1.59 20.75.485 3.85.895 9.137.912 11.75.034 5.16.452 5.416 6.797 4.147 2.817-.564 2.963-.811 2.221-3.75-.74-2.93-2.342-32.846-2.27-42.397l.031-4.25h-9.989l.708 13.75M187 150c0 .55.9 1 2 1s2-.45 2-1-.9-1-2-1-2 .45-2 1m-111 4c0 .55 1.098 1 2.441 1 1.343 0 2.719-.45 3.059-1 .361-.583-.656-1-2.441-1-1.682 0-3.059.45-3.059 1m49.25 1.689c.963.252 2.537.252 3.5 0 .963-.251.175-.457-1.75-.457s-2.713.206-1.75.457M69 159c0 .55.675 1 1.5 1s1.5-.45 1.5-1-.675-1-1.5-1-1.5.45-1.5 1m120 5c0 .55 1.098 1 2.441 1 1.343 0 2.719-.45 3.059-1 .361-.583-.656-1-2.441-1-1.682 0-3.059.45-3.059 1m-110.5 1c-.34.55.309 1 1.441 1 1.132 0 2.059-.45 2.059-1s-.648-1-1.441-1-1.719.45-2.059 1m67 0c-.351.567.49 1 1.941 1 1.407 0 2.559-.45 2.559-1s-.873-1-1.941-1-2.219.45-2.559 1m-25.5 1c0 .55 1.323 1 2.941 1 1.618 0 3.219-.45 3.559-1 .368-.595-.823-1-2.941-1-1.957 0-3.559.45-3.559 1m-49 5c0 .55.648 1 1.441 1s1.719-.45 2.059-1c.34-.55-.309-1-1.441-1-1.132 0-2.059.45-2.059 1m103.336 1.567c-.91 2.372 1.223 4.044 3.134 2.458 1.184-.983 1.284-1.616.42-2.658-1.498-1.804-2.813-1.73-3.554.2m-50.8 2.683c.827 2.183 2.061 20.75 1.379 20.75-.917 0-1.891-6.522-1.904-12.75-.007-3.252-.444-5.25-1.149-5.25-1.114 0-.712 8.176.801 16.279.477 2.554.342 2.978-.652 2.05-1.922-1.796-2.697-19.281-.906-20.415 1.578-.999-8.498-1.016-19.605-.033l-7 .619.618 3.5.619 3.5.131-3.309c.232-5.82 1.811-2.513 2.459 5.149.344 4.073 1.075 8.588 1.625 10.033.614 1.616.634 2.627.052 2.627-.521 0-1.369-1.463-1.885-3.25l-.939-3.25-.09 3.309c-.163 6-1.796 2.393-2.504-5.531-1.222-13.687.232-12.522-15.136-12.123-7.307.19-13.489.57-13.738.845-.249.275-.224 5.4.055 11.388l.507 10.888 13.113-.653c7.212-.36 22.338-.897 33.613-1.193 11.275-.297 21.563-.761 22.863-1.032 2.308-.481 2.348-.674 1.718-8.195-.355-4.237-.896-9.39-1.201-11.453l-.556-3.75h-6.381c-4.69 0-6.255.331-5.907 1.25m66.464.133c0 .888 4.046 1.352 4.558.523.308-.498-.592-.906-1.999-.906s-2.559.173-2.559.383m-84.947 2.955c.029.639.65 4.762 1.38 9.162.73 4.4 1.13 8.338.888 8.75-.241.412.038.75.62.75s1.12-1.463 1.195-3.25c.099-2.35.256-2.627.57-1 .784 4.069 2.116 2.346 1.546-2-1.093-8.342-2.689-13.063-4.502-13.323-.963-.137-1.726.273-1.697.911m-34.7 1.412c.269.963.822 2.875 1.229 4.25.408 1.375 1.006 5.195 1.33 8.489.474 4.83.957 6.059 2.493 6.353 1.793.343 1.867-.131 1.244-7.989-.765-9.644-1.482-12.853-2.873-12.853-.544 0-.733.67-.419 1.488s.814 3.856 1.112 6.75c.637 6.2.2 5.439-1.43-2.488-.65-3.162-1.63-5.75-2.178-5.75s-.776.787-.508 1.75m10.68-1.25c-.112.55-.133 3.363-.046 6.25.126 4.174-.164 5.25-1.414 5.25-.865 0-1.573.502-1.573 1.117 0 .614.876.887 1.948.607 1.66-.434 2.003.102 2.325 3.633.208 2.279.403.543.434-3.857.049-6.959-1.095-15.844-1.674-13m2.338 3.25c.3 2.063.834 6.563 1.186 10 .352 3.438 1.095 6.25 1.652 6.25.591 0 .781-1.356.457-3.25-.306-1.787-.859-6.287-1.228-10S84.33 178 83.796 178c-.553 0-.736 1.615-.425 3.75M112.5 179c-1.908.82-1.897.863.25.93 1.237.038 2.25-.38 2.25-.93s-.112-.968-.25-.93c-.138.039-1.15.457-2.25.93m-26 2c-.34.55.309 1 1.441 1 1.132 0 2.059-.45 2.059-1s-.648-1-1.441-1-1.719.45-2.059 1m21.179 3.5c.317 2.75.745 5.188.949 5.417.703.787.172-5.419-.677-7.917-.573-1.686-.662-.872-.272 2.5M146 183c0 .55.9 1 2 1s2-.45 2-1-.9-1-2-1-2 .45-2 1m-49.748 4.5c.011 2.2.216 2.982.455 1.738.239-1.244.23-3.044-.02-4s-.446.062-.435 2.262M190 187l-2.5.801 2.75.099c1.512.055 2.75-.35 2.75-.9s-.113-.955-.25-.9c-.137.055-1.375.46-2.75.9m-62.5 2c.34.55 1.266 1 2.059 1 .793 0 1.441-.45 1.441-1s-.927-1-2.059-1c-1.132 0-1.781.45-1.441 1m-23.687 2.683c.721.289 1.584.253 1.916-.079.332-.332-.258-.568-1.312-.525-1.165.048-1.402.285-.604.604m60.377 7.866c-18.046 1.788-19.19 2.083-19.19 4.949 0 3.343 1.04 5.596 2.24 4.854 1.044-.646 36.038-2.649 47.51-2.721l6.25-.038v-3.672c0-3.312-.306-3.732-3.125-4.296-4.699-.94-18.771-.554-33.685.924m-54.69.52c-11.55.382-26.078 1.041-32.285 1.464l-11.286.77.67 10.099c.369 5.554.798 10.249.955 10.434.156.185 6.058-.176 13.115-.8 7.057-.625 24.188-1.258 38.069-1.408 13.881-.149 25.475-.507 25.763-.796.289-.289.006-5.094-.629-10.679L142.718 199l-6.109.187c-3.36.104-15.559.5-27.109.882m10 3.481c-6.6.716-16.5 1.337-22 1.381-13.557.11-26.545 1.187-25.948 2.152 1.055 1.708 65.448-2.477 65.448-4.253 0-1.022-2.293-.928-17.5.72m62 5.496c-2.75.428-10.175.823-16.5.877-6.325.055-13.238.386-15.362.737-3.838.634-3.858.662-3.334 4.572.29 2.163.702 4.107.915 4.32.213.213 12.488.429 27.278.48l26.892.094-.282-5.308c-.154-2.919-.805-5.641-1.444-6.048-1.443-.917-11.478-.765-18.163.276"/><path fill="#1976D2" fill-opacity=".286" fill-rule="evenodd" d="M176.932 27.749c9.082.194 14.953.74 15.837 1.474.853.708 1.256 2.436 1.027 4.401-.208 1.78-.022 3.016.413 2.747 1.522-.941.874-8.125-.791-8.764-.87-.334-8.182-.508-16.25-.387l-14.668.221 14.432.308m-25.668.969c1.52.229 3.77.223 5-.014 1.23-.237-.014-.425-2.764-.418-2.75.008-3.756.202-2.236.432m-10.502.989c1.244.239 3.044.23 4-.02s-.062-.446-2.262-.435c-2.2.011-2.982.216-1.738.455m-11.012.999c1.238.238 3.262.238 4.5 0 1.238-.239.225-.434-2.25-.434s-3.488.195-2.25.434M103.5 32l-11 .605 10.5.073c5.775.041 13.65-.25 17.5-.645l7-.718-6.5.04c-3.575.022-11.45.312-17.5.645m-50.384 3.25c.084 1.625.241 1.776.565.542.36-1.366 1.884-1.776 7.634-2.051l7.185-.344-7.75-.198c-7.46-.192-7.746-.115-7.634 2.051m97.384 4.346c-21.422 1.793-35.988 2.377-62 2.487-18.7.079-33.213.351-32.251.604.962.253 2.038 1.608 2.39 3.012.568 2.264.751 2.355 1.62.803.904-1.617 2.691-1.698 23.61-1.078 16.456.488 27.952.259 42.131-.838l41.75-3.236c16.815-1.305 22.25-2.047 22.25-3.038 0-1.758-5.155-1.591-39.5 1.284M190.328 53.5c.005 3.85.185 5.302.402 3.228.216-2.075.213-5.225-.008-7-.221-1.776-.398-.078-.394 3.772M69.75 49.662c.688.278 1.813.278 2.5 0 .688-.277.125-.504-1.25-.504s-1.937.227-1.25.504m25.063 1.021c.721.289 1.584.253 1.916-.079.332-.332-.258-.568-1.312-.525-1.165.048-1.402.285-.604.604m69 1c.721.289 1.584.253 1.916-.079.332-.332-.258-.568-1.312-.525-1.165.048-1.402.285-.604.604M61.195 54.5c.02 1.65.244 2.204.498 1.231.254-.973.237-2.323-.037-3-.274-.677-.481.119-.461 1.769m64.555-.838c.688.278 1.813.278 2.5 0 .688-.277.125-.504-1.25-.504s-1.937.227-1.25.504m-16.037 10.11c2.135 12.349 3.327 11.441-15.213 11.595l-16 .133-.573-7-.574-7-.176 6.84c-.151 5.814.13 7.088 1.872 8.5 1.698 1.375 2.151 3.229 2.642 10.809.544 8.409.439 9.189-1.299 9.634-1.07.274-.371.536 1.608.603l3.5.119-.317-8.753-.316-8.752 11.316.5c6.225.275 15.236.37 20.026.212l8.71-.289-8.058-12.211c-4.432-6.717-8.154-12.315-8.271-12.44-.117-.126.388 3.249 1.123 7.5m56.177-5.581c.559 1.481 1.314 5.981 1.678 10l.662 7.309-16.273-.024c-15.267-.023-16.32-.146-17.044-2-.734-1.877-.776-1.867-.843.207-.042 1.304.692 2.424 1.822 2.783 2.459.78 3.078 3.337 3.094 12.784.012 6.503-.248 7.75-1.616 7.75-1.343 0-1.54.801-1.117 4.549.282 2.503.793 4.83 1.136 5.173.579.58 30.678-1.448 33.283-2.242.647-.197.932-1.277.637-2.408-.295-1.127-.893-1.829-1.329-1.559-.436.269-5.448.93-11.137 1.469-5.688.539-12.931 1.236-16.093 1.549l-5.75.568v-3.049c0-2.85.242-3.05 3.7-3.05 2.878 0 3.433-.267 2.5-1.2-.721-.721-1.2-4.212-1.201-8.75l-.001-7.55 20.085.291c16.193.234 19.937.04 19.321-1-1.819-3.072-14.752-22.383-15.598-23.291-.513-.55-.475.211.084 1.691m-70.14-.468c1.787.222 4.713.222 6.5 0 1.787-.221.325-.403-3.25-.403s-5.037.182-3.25.403m59.018.002c1.797.222 4.497.218 6-.01 1.503-.229.032-.411-3.268-.405-3.3.005-4.529.192-2.732.415M76 58.757c0 .417 2.138.623 4.75.458 8.217-.518 8.995-.938 2-1.079-3.713-.075-6.75.205-6.75.621m59.728-.035c1.775.221 4.925.224 7 .008 2.074-.217.622-.397-3.228-.402-3.85-.004-5.548.173-3.772.394M62.349 67c0 4.675.173 6.587.383 4.25.211-2.338.211-6.163 0-8.5-.21-2.338-.383-.425-.383 4.25m71.951-2c0 3.025.187 4.263.416 2.75.229-1.513.229-3.987 0-5.5s-.416-.275-.416 2.75m-52.068-1c0 1.925.206 2.713.457 1.75.252-.963.252-2.538 0-3.5-.251-.962-.457-.175-.457 1.75m16.04 1c0 2.475.195 3.487.434 2.25.238-1.237.238-3.263 0-4.5-.239-1.237-.434-.225-.434 2.25m56.96-1c0 1.925.206 2.713.457 1.75.252-.963.252-2.538 0-3.5-.251-.962-.457-.175-.457 1.75m5.783 2.083c.009 2.98.455 6.092.991 6.917.657 1.009.769-.627.345-5-.792-8.158-1.356-8.967-1.336-1.917M93.232 65c0 1.925.206 2.713.457 1.75.252-.963.252-2.537 0-3.5-.251-.962-.457-.175-.457 1.75m56.926-1c0 1.375.227 1.938.504 1.25.278-.687.278-1.812 0-2.5-.277-.687-.504-.125-.504 1.25m-80.345-.317c.721.289 1.584.253 1.916-.079.332-.332-.258-.568-1.312-.525-1.165.048-1.402.285-.604.604m76.329 3.567c-.125 3.295-.445 3.75-2.642 3.75-2.028 0-2.526-.52-2.636-2.75-.134-2.703-.144-2.707-.601-.25-.256 1.375-.907 2.775-1.448 3.111-1.588.987 1.365 1.516 5.185.928 3.457-.532 3.492-.589 2.892-4.539l-.608-4-.142 3.75M104 68.5c0 1.925.36 3.5.799 3.5.44 0 .616-1.575.391-3.5-.225-1.925-.585-3.5-.799-3.5-.215 0-.391 1.575-.391 3.5m87.272.5c0 2.475.195 3.487.434 2.25.238-1.237.238-3.263 0-4.5-.239-1.237-.434-.225-.434 2.25M89 68.993c0 1.684-.619 1.968-4.003 1.836-2.201-.086-4.301.142-4.666.507-.366.365.048.664.919.664s1.81.563 2.088 1.25c.403 1 .52 1 .583 0 .043-.687 1.167-1.25 2.496-1.25s2.643.563 2.921 1.25c.277.688.54-.437.583-2.5.043-2.062-.146-3.75-.421-3.75s-.5.897-.5 1.993m62.232 1.507c0 2.2.206 3.213.457 2.25.516-1.975 3.931-2.389 4.544-.551.265.796.599.681.991-.34.325-.847.189-2.175-.301-2.95-.632-.997-.897-1.044-.908-.159-.023 1.92-3.808 1.483-4.326-.5-.251-.963-.457.05-.457 2.25m-57.548-.75c-.238.412-.072 1.65.371 2.75.702 1.746.813 1.651.875-.75.069-2.713-.399-3.464-1.246-2m3.505.927c.928.246 1.888 1.206 2.134 2.134.315 1.197.479 1.033.561-.561.089-1.732-.402-2.223-2.134-2.134-1.594.082-1.758.246-.561.561m95.063 9.823c.011 2.2.216 2.982.455 1.738.239-1.244.23-3.044-.02-4s-.446.062-.435 2.262m-61.439 2.183c.721.289 1.584.253 1.916-.079.332-.332-.258-.568-1.312-.525-1.165.048-1.402.285-.604.604M165.232 86c0 1.925.206 2.713.457 1.75.252-.963.252-2.537 0-3.5-.251-.963-.457-.175-.457 1.75m-48.419-1.317c.721.289 1.584.253 1.916-.079.332-.332-.258-.568-1.312-.525-1.165.048-1.402.285-.604.604M108.272 89c0 2.475.195 3.487.434 2.25.238-1.237.238-3.263 0-4.5-.239-1.237-.434-.225-.434 2.25m-45.89 8.5c.002 6.6.164 9.17.359 5.711.196-3.459.195-8.859-.003-12s-.358-.311-.356 6.289m117.431-10.817c.721.289 1.584.253 1.916-.079.332-.332-.258-.568-1.312-.525-1.165.048-1.402.285-.604.604m13.439 3.817c.011 2.2.216 2.982.455 1.738.239-1.244.23-3.044-.02-4s-.446.062-.435 2.262m-69.439 4.183c.721.289 1.584.253 1.916-.079.332-.332-.258-.568-1.312-.525-1.165.048-1.402.285-.604.604m53 0c.721.289 1.584.253 1.916-.079.332-.332-.258-.568-1.312-.525-1.165.048-1.402.285-.604.604M98 96l-10.5.609 10.75.195c6.63.121 10.75-.187 10.75-.804 0-.55-.112-.912-.25-.804-.138.107-4.975.469-10.75.804m14.64 1.95c.336 1.678.216 3.055-.265 3.062-.481.006-7.784.679-16.229 1.494-8.445.816-15.716 1.26-16.157.987-.441-.273-.567.405-.279 1.506.629 2.404 1.097 2.423 20.04.8l14.25-1.222v-4.229c0-2.327-.443-4.504-.985-4.839-.611-.377-.753.55-.375 2.441M155 96l-10.5.609 11.25.195c6.964.121 11.25-.185 11.25-.804 0-.55-.338-.912-.75-.804-.412.107-5.475.469-11.25.804m14.731 1.08c.354 1.352.807 1.806 1.057 1.057.24-.722-.038-1.787-.62-2.369-.742-.742-.872-.351-.437 1.312m24.938 5.67c.427 6.528.257 8.256-.815 8.28-.895.021-.761.376.396 1.05.963.561 1.802 2.235 1.866 3.72.064 1.485.289 2.025.5 1.2.211-.825-.262-6.225-1.051-12-1.426-10.435-1.431-10.449-.896-2.25m-10.856.933c.721.289 1.584.253 1.916-.079.332-.332-.258-.568-1.312-.525-1.165.048-1.402.285-.604.604m-114 1c.721.289 1.584.253 1.916-.079.332-.332-.258-.568-1.312-.525-1.165.048-1.402.285-.604.604m31 5c.721.289 1.584.253 1.916-.079.332-.332-.258-.568-1.312-.525-1.165.048-1.402.285-.604.604m70.937.979c.688.278 1.813.278 2.5 0 .688-.277.125-.504-1.25-.504s-1.937.227-1.25.504m11 2c.688.278 1.813.278 2.5 0 .688-.277.125-.504-1.25-.504s-1.937.227-1.25.504m-7.988 1.045c1.244.239 3.044.23 4-.02s-.062-.446-2.262-.435c-2.2.011-2.982.216-1.738.455m-36.46 1.039c5.391.18 13.941.179 19-.002 5.059-.181.648-.328-9.802-.327-10.45.001-14.589.149-9.198.329M63.031 132c0 9.625.359 18.067.799 18.759.614.967 2.036 1.025 6.121.25 2.927-.555 7.241-1.009 9.587-1.009h4.266l.639 6.25c1.253 12.238 1.634 13.75 3.466 13.75 1.518 0 1.64-.649.985-5.25-1.408-9.886-1.532-9.601 4.356-10.013l5.25-.367-5.25-.185c-4.884-.172-5.25-.359-5.25-2.685 0-2.499.004-2.5 9.945-2.5h9.945l.375 4.75.375 4.75.18-4.654.18-4.654 10.25-.678c5.638-.374 12.5-.529 15.25-.347l5 .333.559 9.5.558 9.5.192-9.75L141 148h10l.02 6.75c.011 3.713.434 9.614.94 13.114s1.016 12.163 1.133 19.25l.212 12.886 3.598-.015c2.647-.012 3.203-.265 2.104-.96-1.147-.725-1.653-4.144-2.18-14.734-.377-7.585-1.011-18.448-1.408-24.139-.582-8.363-.452-10.521.68-11.252.771-.497 7.255-.863 14.41-.812 7.154.051 14.579-.149 16.5-.445 11.035-1.702 11.831-1.695 12.302.107.251.962.481-.95.51-4.25.037-4.297-.192-5.395-.808-3.868-.59 1.461-2.064 2.321-4.687 2.734-2.104.332-28.668 1.047-59.031 1.59-30.363.542-58.038 1.446-61.5 2.007C63.066 147.704 64 148.988 64 132.5c0-13.113.167-14.508 1.75-14.579 1.394-.063 1.445-.195.25-.65-.825-.314-1.831-1.066-2.235-1.671-.404-.605-.734 6.775-.734 16.4m27.719-16.254c5.638.178 14.862.178 20.5 0s1.025-.324-10.25-.324-15.888.146-10.25.324m-18.988.961c1.244.239 3.044.23 4-.02s-.062-.446-2.262-.435c-2.2.011-2.982.216-1.738.455m39.433 4.793c.02 1.65.244 2.204.498 1.231.254-.973.237-2.323-.037-3-.274-.677-.481.119-.461 1.769m44.16 6c-.003 4.95.166 7.101.376 4.78.209-2.321.212-6.371.005-9-.206-2.629-.378-.73-.381 4.22m27.84-6c.02 1.65.244 2.204.498 1.231.254-.973.237-2.323-.037-3-.274-.677-.481.119-.461 1.769m13.879 1.083c.041 2.154.459 5.942.929 8.417.643 3.383.718 2.514.304-3.5-.581-8.445-1.358-11.545-1.233-4.917M83.158 122c0 1.375.227 1.938.504 1.25.278-.687.278-1.812 0-2.5-.277-.687-.504-.125-.504 1.25m57.921-.417c.048 1.165.285 1.402.604.605.289-.722.253-1.585-.079-1.917-.332-.332-.568.258-.525 1.312M165.336 127c0 4.125.177 5.813.392 3.75.216-2.062.216-5.437 0-7.5-.215-2.062-.392-.375-.392 3.75m8.822-5c0 1.375.227 1.938.504 1.25.278-.687.278-1.812 0-2.5-.277-.687-.504-.125-.504 1.25m-81.963 1.5c.02 1.65.244 2.204.498 1.231.254-.973.237-2.323-.037-3-.274-.677-.481.119-.461 1.769m41.077 1.5c0 2.475.195 3.488.434 2.25.238-1.237.238-3.263 0-4.5-.239-1.237-.434-.225-.434 2.25m-57.962 3.5c.005 3.3.192 4.529.415 2.732.222-1.797.218-4.497-.01-6-.229-1.503-.411-.032-.405 3.268m45.976 0c.008 2.75.202 3.756.432 2.236.229-1.52.223-3.77-.014-5-.237-1.23-.425.014-.418 2.764m20.872-2.5c0 1.375.227 1.938.504 1.25.278-.687.278-1.812 0-2.5-.277-.687-.504-.125-.504 1.25m-57.963 1.5c.02 1.65.244 2.204.498 1.231.254-.973.237-2.323-.037-3-.274-.677-.481.119-.461 1.769m17 0c.02 1.65.244 2.204.498 1.231.254-.973.237-2.323-.037-3-.274-.677-.481.119-.461 1.769m82.884-.917c.048 1.165.285 1.402.604.605.289-.722.253-1.585-.079-1.917-.332-.332-.568.258-.525 1.312M175.272 130c0 2.475.195 3.488.434 2.25.238-1.238.238-3.262 0-4.5-.239-1.237-.434-.225-.434 2.25m-63.04 0c0 1.925.206 2.713.457 1.75.252-.963.252-2.537 0-3.5-.251-.963-.457-.175-.457 1.75m-19 2c0 1.925.206 2.713.457 1.75.252-.963.252-2.537 0-3.5-.251-.963-.457-.175-.457 1.75m91.847-1.417c.048 1.165.285 1.402.604.605.289-.722.253-1.585-.079-1.917-.332-.332-.568.258-.525 1.312m-41.884 1.917c.02 1.65.244 2.204.498 1.231.254-.973.237-2.323-.037-3-.274-.677-.481.119-.461 1.769m-9.18 2.583c.009 2.429.436 5.081.949 5.893.608.962.735-.43.364-4-.71-6.823-1.333-7.721-1.313-1.893m-48.82-.583c.02 1.65.244 2.204.498 1.231.254-.973.237-2.323-.037-3-.274-.677-.481.119-.461 1.769m16.963-.5c0 1.375.227 1.938.504 1.25.278-.687.278-1.812 0-2.5-.277-.687-.504-.125-.504 1.25m83.574 1.257c-.301.783-.201 1.984.221 2.668.593.958.894.917 1.315-.182.301-.783.201-1.984-.221-2.668-.593-.958-.894-.917-1.315.182M113 137c0 1.1.408 2 .906 2 .499 0 .671-.9.384-2-.288-1.1-.696-2-.907-2-.21 0-.383.9-.383 2m9 0c0 1.1.408 2 .906 2 .499 0 .671-.9.384-2-.288-1.1-.696-2-.907-2-.21 0-.383.9-.383 2m43.659-.156c-.189.361-.01 1.781.399 3.156.681 2.292.751 2.319.842.323.056-1.213.874-2.337 1.85-2.54 1.423-.296 1.33-.479-.499-.98-1.237-.338-2.404-.32-2.592.041m8.091-.138c1.238.238 2.286 1.189 2.329 2.114.065 1.377.182 1.41.65.18.314-.825 1.066-1.831 1.671-2.235.605-.404-.7-.68-2.9-.614-2.269.069-3.027.309-1.75.555M76.158 139c0 1.375.227 1.938.504 1.25.278-.687.278-1.812 0-2.5-.277-.687-.504-.125-.504 1.25m18 0c0 1.375.227 1.938.504 1.25.278-.687.278-1.812 0-2.5-.277-.687-.504-.125-.504 1.25m46.342-.892-4 .608 3.75.142c2.248.085 3.756.643 3.765 1.392.013.995.178.994.813-.006.539-.849 3.306-1.219 8.541-1.14 4.259.064 8.018-.158 8.354-.494.336-.335-.477-.633-1.806-.661-1.329-.028-5.342-.141-8.917-.25-3.575-.109-8.3.075-10.5.409m-40.75.615c1.787.222 3.257.938 3.265 1.59.012.906.193.909.763.011.412-.646 2.542-1.358 4.735-1.581 2.193-.224.387-.41-4.013-.415-4.4-.004-6.537.174-4.75.395m-21.582.778c.747.747 11.801.863 12.533.131.348-.347-2.443-.632-6.201-.632-3.758 0-6.608.225-6.332.501m-8.355 1.182c.721.289 1.584.253 1.916-.079.332-.332-.258-.568-1.312-.525-1.165.048-1.402.285-.604.604M181.349 160c0 4.675.173 6.588.383 4.25.211-2.338.211-6.162 0-8.5-.21-2.338-.383-.425-.383 4.25m-80.099-6.311c.963.252 2.537.252 3.5 0 .963-.251.175-.457-1.75-.457s-2.713.206-1.75.457m36.155 15.811c.001 8.8.154 12.266.34 7.703.185-4.564.184-11.764-.003-16-.187-4.237-.338-.503-.337 8.297m62.591-2.204.495 13.204.287-12.418c.157-6.83-.066-12.771-.496-13.203-.43-.432-.559 5.156-.286 12.417m-74.246-11.634c.688.278 1.813.278 2.5 0 .688-.277.125-.504-1.25-.504s-1.937.227-1.25.504M109 165.43c0 2.763-.438 3.515-2.25 3.864-1.929.372-1.858.453.5.57 2.564.127 2.75-.134 2.75-3.864 0-2.2-.225-4-.5-4s-.5 1.544-.5 3.43m81.75-1.768c.688.278 1.813.278 2.5 0 .688-.277.125-.504-1.25-.504s-1.937.227-1.25.504m-68.481 2.031c.973.254 2.323.237 3-.037.677-.274-.119-.481-1.769-.461-1.65.02-2.204.244-1.231.498M64.378 179c0 6.325.163 8.912.361 5.75.198-3.162.198-8.338 0-11.5-.198-3.162-.361-.575-.361 5.75m8.435-8.317c.721.289 1.584.253 1.916-.079.332-.332-.258-.568-1.312-.525-1.165.048-1.402.285-.604.604m22.949.024c1.244.239 3.044.23 4-.02s-.062-.446-2.262-.435c-2.2.011-2.982.216-1.738.455m28.966 1.015c1.775.221 4.925.224 7 .008 2.074-.217.622-.397-3.228-.402-3.85-.004-5.548.173-3.772.394M141.3 176c0 3.025.187 4.262.416 2.75.229-1.512.229-3.988 0-5.5s-.416-.275-.416 2.75m-37.572-3.278c1.775.221 4.925.224 7 .008 2.074-.217.622-.397-3.228-.402-3.85-.004-5.548.173-3.772.394m70.731.345c-.363.586-.389 1.336-.059 1.666.33.33.6.075.6-.566 0-.642.498-1.167 1.107-1.167s.839.698.511 1.552c-.341.89-.173 1.291.393.941.544-.336.989-1.259.989-2.052 0-1.672-2.571-1.944-3.541-.374m-101.179.669c2.629.207 6.679.204 9-.005 2.321-.21.17-.379-4.78-.376-4.95.003-6.849.175-4.22.381m50.482-.029c1.244.239 3.044.23 4-.02s-.062-.446-2.262-.435c-2.2.011-2.982.216-1.738.455m10.051-.024c.721.289 1.584.253 1.916-.079.332-.332-.258-.568-1.312-.525-1.165.048-1.402.285-.604.604M182.3 178c0 3.025.187 4.262.416 2.75.229-1.512.229-3.988 0-5.5s-.416-.275-.416 2.75m-74.532-3.275c1.797.222 4.497.218 6-.01 1.503-.229.032-.411-3.268-.405-3.3.005-4.529.192-2.732.415m-14 1c1.797.222 4.497.218 6-.01 1.503-.229.032-.411-3.268-.405-3.3.005-4.529.192-2.732.415m96.982-.063c.688.278 1.813.278 2.5 0 .688-.277.125-.504-1.25-.504s-1.937.227-1.25.504m-121.5 1.027c.963.252 2.537.252 3.5 0 .963-.251.175-.457-1.75-.457s-2.713.206-1.75.457m54.036 3.811c.008 2.75.202 3.756.432 2.236.229-1.52.223-3.77-.014-5-.237-1.23-.425.014-.418 2.764m-2.976 2c.005 3.3.192 4.529.415 2.732.222-1.797.218-4.497-.01-6-.229-1.503-.411-.032-.405 3.268M94.232 181c0 1.925.206 2.713.457 1.75.252-.963.252-2.537 0-3.5-.251-.963-.457-.175-.457 1.75m13.499-.92c.354 1.352.807 1.806 1.057 1.057.24-.722-.038-1.787-.62-2.369-.742-.742-.872-.351-.437 1.312m-36.652.503c.048 1.165.285 1.402.604.605.289-.722.253-1.585-.079-1.917-.332-.332-.568.258-.525 1.312m3.079.417c0 1.375.227 1.938.504 1.25.278-.687.278-1.812 0-2.5-.277-.687-.504-.125-.504 1.25m7.094 1.5c.011 2.2.216 2.982.455 1.738.239-1.244.23-3.044-.02-4s-.446.062-.435 2.262m31.561-2.817c.721.289 1.584.253 1.916-.079.332-.332-.258-.568-1.312-.525-1.165.048-1.402.285-.604.604M84.272 184c0 2.475.195 3.488.434 2.25.238-1.238.238-3.262 0-4.5-.239-1.238-.434-.225-.434 2.25m21.923-1.5c.02 1.65.244 2.204.498 1.231.254-.973.237-2.323-.037-3-.274-.677-.481.119-.461 1.769m-8.923 3.5c0 2.475.195 3.488.434 2.25.238-1.238.238-3.262 0-4.5-.239-1.238-.434-.225-.434 2.25m-25.193-1.417c.048 1.165.285 1.402.604.605.289-.722.253-1.585-.079-1.917-.332-.332-.568.258-.525 1.312m37.116.917c.02 1.65.244 2.204.498 1.231.254-.973.237-2.323-.037-3-.274-.677-.481.119-.461 1.769m33.057 1c.011 2.2.216 2.982.455 1.738.239-1.244.23-3.044-.02-4s-.446.062-.435 2.262m-67.02.5c0 1.925.206 2.713.457 1.75.252-.963.252-2.537 0-3.5-.251-.963-.457-.175-.457 1.75m20.02 2.5c.011 2.2.216 2.982.455 1.738.239-1.244.23-3.044-.02-4s-.446.062-.435 2.262m-22.057 0c.02 1.65.244 2.204.498 1.231.254-.973.237-2.323-.037-3-.274-.677-.481.119-.461 1.769m33.963-.5c0 1.375.227 1.938.504 1.25.278-.687.278-1.812 0-2.5-.277-.687-.504-.125-.504 1.25m31.094 1.5c.011 2.2.216 2.982.455 1.738.239-1.244.23-3.044-.02-4s-.446.062-.435 2.262m45.02.5c0 2.475.195 3.488.434 2.25.238-1.238.238-3.262 0-4.5-.239-1.238-.434-.225-.434 2.25m6.478-3.338c.688.278 1.813.278 2.5 0 .688-.277.125-.504-1.25-.504s-1.937.227-1.25.504M82.3 193c0 3.025.187 4.262.416 2.75.229-1.512.229-3.988 0-5.5s-.416-.275-.416 2.75m41.972-1c0 2.475.195 3.488.434 2.25.238-1.238.238-3.262 0-4.5-.239-1.238-.434-.225-.434 2.25m-3.077-.5c.02 1.65.244 2.204.498 1.231.254-.973.237-2.323-.037-3-.274-.677-.481.119-.461 1.769M85.232 193c0 1.925.206 2.713.457 1.75.252-.963.252-2.537 0-3.5-.251-.963-.457-.175-.457 1.75m24.963-.5c.02 1.65.244 2.204.498 1.231.254-.973.237-2.323-.037-3-.274-.677-.481.119-.461 1.769m-12.18.083c.009 1.054.472 2.592 1.031 3.417.741 1.095.834.691.344-1.5-.823-3.677-1.395-4.475-1.375-1.917m5.798-.9c.721.289 1.584.253 1.916-.079.332-.332-.258-.568-1.312-.525-1.165.048-1.402.285-.604.604m97.042 3.067c-.195 2.063-.097 6.9.218 10.75.533 6.496.587 6.225.75-3.75.176-10.717-.294-14.118-.968-7m-92.66-.25c.02 1.65.244 2.204.498 1.231.254-.973.237-2.323-.037-3-.274-.677-.481.119-.461 1.769m-32 2c.02 1.65.244 2.204.498 1.231.254-.973.237-2.323-.037-3-.274-.677-.481.119-.461 1.769m-2.116 1.083c.048 1.165.285 1.402.604.605.289-.722.253-1.585-.079-1.917-.332-.332-.568.258-.525 1.312m100.421-.364c-11.105.917-15.576 1.838-6 1.236 3.85-.243 12.175-.496 18.5-.564 6.325-.068 10.825-.27 10-.449-3.681-.801-14.243-.905-22.5-.223M65.374 207.5c.002 6.05.167 8.396.366 5.213.199-3.182.197-8.132-.004-11-.201-2.867-.364-.263-.362 5.787m76.641-9.809c.009.445.452 1.484.985 2.309.835 1.293.971 1.266.985-.191.008-.93-.435-1.969-.985-2.309-.55-.34-.993-.254-.985.191m-15.287 1.031c1.775.221 4.925.224 7 .008 2.074-.217.622-.397-3.228-.402-3.85-.004-5.548.173-3.772.394m-29.952 1.011c2.352.212 5.952.209 8-.006s.124-.388-4.276-.384c-4.4.003-6.076.179-3.724.39m-15.014.974c1.244.239 3.044.23 4-.02s-.062-.446-2.262-.435c-2.2.011-2.982.216-1.738.455m66.507-.014c.973.254 2.323.237 3-.037.677-.274-.119-.481-1.769-.461-1.65.02-2.204.244-1.231.498m-21.005 3.025c1.52.229 3.77.223 5-.014 1.23-.237-.014-.425-2.764-.418-2.75.008-3.756.202-2.236.432m-10.514.988c1.237.238 3.263.238 4.5 0 1.237-.239.225-.434-2.25-.434s-3.487.195-2.25.434M144.232 207c0 1.925.206 2.713.457 1.75.252-.963.252-2.537 0-3.5-.251-.963-.457-.175-.457 1.75m-38.482-1.294c1.237.238 3.263.238 4.5 0 1.237-.239.225-.434-2.25-.434s-3.487.195-2.25.434m-26.481.987c.973.254 2.323.237 3-.037.677-.274-.119-.481-1.769-.461-1.65.02-2.204.244-1.231.498m14.493.014c1.244.239 3.044.23 4-.02s-.062-.446-2.262-.435c-2.2.011-2.982.216-1.738.455m93 1c1.244.239 3.044.23 4-.02s-.062-.446-2.262-.435c-2.2.011-2.982.216-1.738.455m9.988-.045c.688.278 1.813.278 2.5 0 .688-.277.125-.504-1.25-.504s-1.937.227-1.25.504m-21 1.044c1.238.238 3.262.238 4.5 0 1.238-.239.225-.434-2.25-.434s-3.488.195-2.25.434m-25 1c1.238.238 3.262.238 4.5 0 1.238-.239.225-.434-2.25-.434s-3.488.195-2.25.434M145.232 216c0 1.925.206 2.713.457 1.75.252-.963.252-2.537 0-3.5-.251-.963-.457-.175-.457 1.75m56.884 2.184c-.092 2.122-.691 2.77-2.866 3.1l-2.75.416 2.781.15c2.959.16 4.208-1.499 3.42-4.542-.314-1.211-.507-.923-.585.876m-81.616 2.841-26 .526 27.25.224c14.988.124 27.25.048 27.25-.168 0-.988-4.166-1.073-28.5-.582m48.75-.286c3.162.198 8.338.198 11.5 0 3.162-.198.575-.361-5.75-.361s-8.912.163-5.75.361m-86.522 1.983c1.775.221 4.925.224 7 .008 2.074-.217.622-.397-3.228-.402-3.85-.004-5.548.173-3.772.394m-15.915.961c.721.289 1.584.253 1.916-.079.332-.332-.258-.568-1.312-.525-1.165.048-1.402.285-.604.604m4.937.023c1.237.238 3.263.238 4.5 0 1.237-.239.225-.434-2.25-.434s-3.487.195-2.25.434"/></svg>